<?xml version="1.0" standalone="no"?>
<!DOCTYPE svg PUBLIC "-//W3C//DTD SVG 1.1//EN" "http://www.w3.org/Graphics/SVG/1.1/DTD/svg11.dtd" >
<!--
2013-9-30: Created.
-->
<svg>
<metadata>
Created by iconfont
</metadata>
<defs>

<font id="iconfont" horiz-adv-x="1024" >
  <font-face
    font-family="iconfont"
    font-weight="500"
    font-stretch="normal"
    units-per-em="1024"
    ascent="896"
    descent="-128"
  />
    <missing-glyph />
    
    <glyph glyph-name="zhifushibai" unicode="&#58924;" d="M512-21.381727c-223.886093 0-405.381727 181.495634-405.381727 405.381727S288.113907 789.381727 512 789.381727s405.381727-181.495634 405.381727-405.381727S735.886093-21.381727 512-21.381727zM695.454242 544.522973l-22.931269 22.931269L512 406.932292 351.477027 567.455265l-22.931269-22.931269 160.522973-160.522973L328.544735 223.477027l22.931269-22.931269 160.522973 160.522973 160.522973-160.522973 22.931269 22.931269L534.932292 384 695.454242 544.522973z"  horiz-adv-x="1024" />

    
    <glyph glyph-name="zhifuchenggong" unicode="&#58925;" d="M512-21.381727c-223.886093 0-405.381727 181.495634-405.381727 405.381727S288.113907 789.381727 512 789.381727s405.381727-181.495634 405.381727-405.381727S735.886093-21.381727 512-21.381727zM768.304434 555.124426 452.991048 239.812063 263.803221 428.99989l-22.932292-22.931269L452.991048 193.94748l338.244654 338.244654L768.304434 555.124426z"  horiz-adv-x="1024" />

    
    <glyph glyph-name="fenzu" unicode="&#58901;" d="M906.4448 479.9488c0-133.888-121.344-310.784-363.8784-530.5344a45.5168 45.5168 0 0 0-61.1328 0c-242.5856 219.7504-363.8784 396.6464-363.8784 530.5344C117.5552 713.9328 314.7776 868.7104 512 868.7104s394.4448-154.7776 394.4448-388.7616zM512 395.3664l92.7232-48.7424-17.7152 103.2704 75.0592 73.1136-103.68 15.0528L512 632.0128 465.6128 538.112l-103.68-15.0528 75.0592-73.1136-17.7152-103.2704L512 395.3664z"  horiz-adv-x="1024" />

    
    <glyph glyph-name="fenzux" unicode="&#58902;" d="M821.1456 611.1232a30.72 30.72 0 0 0 55.9104 25.6c22.528-49.3056 34.304-103.3216 34.304-160.4096 0-134.8096-115.8656-303.7696-345.4464-511.744a72.704 72.704 0 0 0-97.5872 0C238.7968 172.544 122.88 341.504 122.88 476.3136 122.88 697.344 305.664 865.28 517.12 865.28c61.7984 0 123.904-15.1552 180.1728-43.6736 13.0048-6.656 25.7024-13.9264 37.888-21.9136a30.72 30.72 0 0 0-33.4848-51.456 346.5216 346.5216 0 0 1-32.256 18.5344A338.5344 338.5344 0 0 1 517.12 803.84c-178.6368 0-332.8-141.6192-332.8-327.5264 0-112.128 107.6736-269.1072 325.2736-466.2272a11.264 11.264 0 0 1 15.0528 0c217.6 197.12 325.2736 354.1504 325.2736 466.2272 0 48.2304-9.8816 93.5936-28.7744 134.8096zM512 395.3664l-92.7232-48.7424 17.7152 103.2704-75.0592 73.1136 103.68 15.0528L512 632.0128l46.3872-93.952 103.68-15.0528-75.0592-73.1136 17.7152-103.2704L512 395.3664z"  horiz-adv-x="1024" />

    
    <glyph glyph-name="shouyex" unicode="&#58903;" d="M888.832 305.92h-31.232a30.0544 30.0544 0 0 0-29.2864 29.2864c0 15.616-642.4064-29.2864-658.0224-29.2864h-39.0144c-33.2288 0-60.5696 19.456-74.24 48.7936-11.6736 31.232-5.8368 64.4096 17.6128 87.8592l378.7776 378.7776c31.232 31.232 82.0224 31.232 113.2544 0l378.7776-378.7776c23.4496-23.4496 29.2864-56.6272 17.5616-87.8592-13.6704-29.2864-40.96-48.7936-74.1888-48.7936zM381.184-76.8H246.4768a108.3392 108.3392 0 0 0-107.4176 107.3664v292.864c0 15.6672 13.6704 29.3376 29.2864 29.3376 10.4448 0 81.408-123.648 212.8384-370.9952 15.616 0 29.2864-13.6704 29.2864-29.2864a30.0544 30.0544 0 0 0-29.2864-29.2864z m243.3536 10.5984a30.72 30.72 0 0 0-7.1168-0.8192 30.0544 30.0544 0 0 0-29.2864 29.2864v283.136h-156.16v-283.136a30.0544 30.0544 0 0 0-29.3376-29.2864 28.7744 28.7744 0 0 0-29.2864 29.2864l-205.0048 356.8128c0 27.4944 538.0096 50.3296 666.8288 32.768a28.5696 28.5696 0 0 0 16.5888 5.4272c15.616 0 29.2864-13.6704 29.2864-29.2864v-297.4208A107.0592 107.0592 0 0 0 773.632-76.8h-126.9248a29.4912 29.4912 0 0 0-22.1696 10.5984z"  horiz-adv-x="1024" />

    
    <glyph glyph-name="fenzu1" unicode="&#58904;" d="M385.8944 184.0128V660.1216H179.2v-476.1088h206.6944z m0-44.4928H179.2v-61.0816l91.7504-94.4128a8.5504 8.5504 0 0 1 2.0992-1.4848c6.8096-3.584 17.408-2.304 21.0944 1.4848l91.7504 94.4128v61.0816z m0 565.0944V817.6128c0-1.0752-3.6352 1.5872-11.264 1.5872H190.464c-7.6288 0-11.264-2.6624-11.264-1.5872v-112.9984h206.6944zM128 817.6128C128 848.7424 157.3376 870.4 190.464 870.4h184.1664c33.1264 0 62.464-21.6576 62.464-52.7872v-759.9616l-106.24-109.312c-20.0704-20.6336-55.5008-24.9344-81.7664-11.008a59.392 59.392 0 0 0-14.848 11.008L128 57.6512V817.664z m491.1616-382.208h86.016a24.8832 24.8832 0 0 0 0-49.7152h-86.016v-99.5328h135.168a24.8832 24.8832 0 0 0 0-49.7664h-135.168v-99.4816h86.016a24.8832 24.8832 0 0 0 0-49.7664h-86.016v-88.576c0-6.2976 5.0688-11.3664 11.3664-11.3664h235.52c6.2976 0 11.3664 5.12 11.3664 11.3664V807.8336c0 6.2976-5.12 11.3664-11.3664 11.3664h-235.52c-6.2976 0-11.3664-5.12-11.3664-11.3664v-73.8816h86.016a24.8832 24.8832 0 1 0 0-49.7664h-86.016V584.704h135.168a24.8832 24.8832 0 0 0 0-49.7664h-135.168v-99.5328zM630.528 870.4h235.52c34.56 0 62.5664-28.0064 62.5664-62.5664v-809.2672c0-34.56-28.0064-62.5664-62.5664-62.5664h-235.52a62.5664 62.5664 0 0 0-62.5664 62.5664V807.8336c0 34.56 28.0064 62.5664 62.5664 62.5664z"  horiz-adv-x="1024" />

    
    <glyph glyph-name="youxi" unicode="&#58905;" d="M942.08 292.5056a30.72 30.72 0 0 0 61.44 0v-260.096c0-47.5648-32.1536-88.7296-75.9296-88.7296h-187.4944c-39.2704 0-69.7344 33.1264-75.1616 75.3664l-1.8944 14.336c-12.2368 95.744-23.1936 109.2096-85.9648 109.2096H446.6688c-62.6176 0-73.6256-13.4656-85.8624-109.056l-1.8432-14.3872c-5.4272-42.3424-35.8912-75.4688-75.2128-75.4688H96.4096C52.6336-56.32 20.48-15.1552 20.48 32.3584V735.6416c0 47.5136 32.1536 88.6784 75.9296 88.6784h831.1808c43.776 0 75.9296-41.1648 75.9296-88.6784v-260.608a30.72 30.72 0 1 0-61.44 0v260.608c0 16.384-8.448 27.2384-14.4896 27.2384H96.4096c-6.0416 0-14.4896-10.8032-14.4896-27.2384v-703.2832c0-16.384 8.448-27.2384 14.4896-27.2384h187.392c5.2224 0 12.3904 7.7824 14.1824 21.8624l1.8944 14.336c15.7184 122.9824 48.0768 162.7136 146.7904 162.7136h130.4064c98.816 0 131.1744-39.7312 146.944-162.7648l1.8432-14.336c1.792-14.0288 8.96-21.8112 14.2336-21.8112h187.4944c6.0416 0 14.4896 10.8032 14.4896 27.2384v260.1472zM220.16 609.28h409.6a25.6 25.6 0 1 0 0-51.2h-409.6a25.6 25.6 0 0 0 0 51.2z m0-143.36h358.4a25.6 25.6 0 1 0 0-51.2h-358.4a25.6 25.6 0 1 0 0 51.2z m0-143.36h153.6a25.6 25.6 0 1 0 0-51.2h-153.6a25.6 25.6 0 1 0 0 51.2z"  horiz-adv-x="1024" />

    
    <glyph glyph-name="wode" unicode="&#58906;" d="M387.1744 419.3792a51.2 51.2 0 0 0-13.312-85.8624C245.8624 278.8864 153.6 172.8512 153.6 87.9104c0-84.5312 90.2144-116.736 384-116.736 293.7856 0 384 32.2048 384 116.736 0 84.9408-92.3136 190.976-220.2624 245.6064a51.2 51.2 0 0 0-13.312 85.8624 230.4 230.4 0 1 1-300.8512 0z m-33.4336-38.7584a283.3408 283.3408 0 0 0-23.808 23.1424l3.6864 23.9616c-5.8368-2.56-11.6736-5.12-17.408-7.8336a281.6 281.6 0 1 0 442.88 0 582.9632 582.9632 0 0 1-17.5104 7.8336l3.6864-23.9616c-7.4752-8.192-15.4112-15.872-23.808-23.1424 10.0352-4.3008 19.8656-8.8576 29.5424-13.7216l3.8912-25.088a335.872 335.872 0 0 1 15.872 14.6432C888.1664 291.072 972.8 185.2416 972.8 87.9104c0-133.5296-131.9424-167.936-435.2-167.936S102.4-45.568 102.4 87.9104c0 97.3312 84.6336 203.1616 202.0352 268.544 5.12-5.0176 10.3936-9.8816 15.872-14.592l3.8912 25.0368c9.6768 4.864 19.5072 9.4208 29.5424 13.7216z"  horiz-adv-x="1024" />

    
    <glyph glyph-name="shouyex1" unicode="&#58907;" d="M888.832 305.92h-31.232a30.0544 30.0544 0 0 0-29.2864 29.2864c0 15.616 13.6704 29.2864 29.2864 29.2864h31.232c13.6704 0 17.5616 9.728 19.5584 13.6704 1.9456 3.8912 3.8912 13.6704-3.9424 23.3984l-378.7776 378.8288c-7.8336 7.7824-21.504 7.7824-31.232 0L115.6096 401.5616a18.944 18.944 0 0 1-3.8912-23.3984c1.9456-3.9424 7.8336-13.6704 19.5584-13.6704h39.0144c15.616 0 29.2864-13.6704 29.2864-29.2864a30.0544 30.0544 0 0 0-29.2864-29.2864h-39.0144c-33.2288 0-60.5696 19.456-74.24 48.7936-11.6736 31.232-5.8368 64.4096 17.6128 87.8592l378.7776 378.7776c31.232 31.232 82.0224 31.232 113.2544 0l378.7776-378.7776c23.4496-23.4496 29.2864-56.6272 17.5616-87.8592-13.6704-29.2864-40.96-48.7936-74.1888-48.7936zM381.184-76.8H246.4768a108.3392 108.3392 0 0 0-107.4176 107.3664v292.864c0 15.6672 13.6704 29.3376 29.2864 29.3376 15.616 0 29.2864-13.6704 29.2864-29.2864v-292.864c0-27.3408 21.504-48.8448 48.8448-48.8448h134.656c15.6672 0 29.3376-13.6704 29.3376-29.2864a30.0544 30.0544 0 0 0-29.2864-29.2864z m243.3536 10.5984a30.72 30.72 0 0 0-7.1168-0.8192 30.0544 30.0544 0 0 0-29.2864 29.2864v283.136h-156.16v-283.136a30.0544 30.0544 0 0 0-29.3376-29.2864 28.7744 28.7744 0 0 0-29.2864 29.2864v283.136c0 31.232 25.3952 58.5216 58.5728 58.5216h156.2112c31.232 0 58.5728-25.344 58.5728-58.5728v-263.5776h126.976c27.2896 0 48.7936 21.504 48.7936 48.7936v156.2112c0 15.616 13.6704 29.2864 29.2864 29.2864 15.616 0 29.2864-13.6704 29.2864-29.2864v-156.16A107.0592 107.0592 0 0 0 773.632-76.8h-126.9248a29.4912 29.4912 0 0 0-22.1696 10.5984z"  horiz-adv-x="1024" />

    
    <glyph glyph-name="wode1" unicode="&#58908;" d="M353.7408 380.6208a281.6 281.6 0 1 0 367.7184 0C863.744 319.8464 972.8 198.4512 972.8 87.9104c0-133.5296-131.9424-167.936-435.2-167.936S102.4-45.568 102.4 87.9104c0 110.5408 109.056 231.936 251.3408 292.7104z m-18.432-120.32A306.0736 306.0736 0 0 1 537.6 184.32a306.1248 306.1248 0 0 1 206.8992 80.128 25.6 25.6 0 0 1-34.4576 37.888A254.976 254.976 0 0 0 537.6 235.52a254.8736 254.8736 0 0 0-168.5504 63.3344 25.6 25.6 0 1 1-33.792-38.5024z"  horiz-adv-x="1024" />

    
    <glyph glyph-name="youxi1" unicode="&#58909;" d="M972.8 284.6208v-269.568c0-33.1264-20.3264-60.0576-45.2096-60.0576h-184.7808c-22.272 0-41.1136 21.1968-44.6976 50.3808l-1.8944 14.7968c-13.4144 109.0048-35.4304 140.9536-119.1424 140.9536H446.6688c-83.5584 0-105.5744-31.9488-119.04-140.8l-1.8432-14.9504c-3.584-29.184-22.4256-50.3808-44.7488-50.3808H96.4096c-24.8832 0-45.2096 26.9312-45.2096 60.0576V743.7824c0 33.1264 20.3264 60.0576 45.2096 60.0576h831.1808c24.8832 0 45.2096-26.9312 45.2096-60.0576v-459.1616zM220.9792 609.792a24.2688 24.2688 0 0 1 0-48.5376h388.0448a24.2688 24.2688 0 1 1 0 48.5376h-388.096z m0-145.5616a24.2688 24.2688 0 0 1 0-48.4864h339.5072a24.2688 24.2688 0 0 1 0 48.4864H220.9792z m0-145.5104a24.2688 24.2688 0 0 1 0-48.4864h145.5104a24.2688 24.2688 0 1 1 0 48.4864H220.9792z"  horiz-adv-x="1024" />

    
    <glyph glyph-name="fenzu2" unicode="&#58910;" d="M153.6 449.536V840.704c0 16.384 17.3056 29.696 38.6048 29.696h193.024c21.2992 0 38.6048-13.312 38.6048-29.696v-819.3536l-103.7312-111.36c-12.4416-13.312-36.5568-16.384-53.9136-6.8096a35.584 35.584 0 0 0-8.8576 6.8096L153.6 21.3504V449.5872z m0 267.6224v-48.64h270.2336v48.64H153.6z m0-569.0368v-48.64h270.2336v48.64H153.6z m432.3328 220.416h102.5536a27.1872 27.1872 0 0 1 0 54.3744h-102.5536V531.712h167.424a27.1872 27.1872 0 0 1 0 54.3744h-167.424V694.784h102.5536a27.1872 27.1872 0 0 1 0 54.4256h-102.5536V833.4336c0 20.4288 16.5888 36.9664 36.9664 36.9664h250.368c20.4288 0 36.9664-16.5376 36.9664-36.9664v-891.4944a36.9664 36.9664 0 0 0-36.9664-36.9664h-250.368a36.9664 36.9664 0 0 0-36.9664 36.9664v100.2496h102.5536a27.1872 27.1872 0 0 1 0 54.4256h-102.5536V205.312h167.424a27.1872 27.1872 0 0 1 0 54.3744h-167.424v108.8z"  horiz-adv-x="1024" />

    
    <glyph glyph-name="hebingxingzhuang" unicode="&#58911;" d="M544 512h256a32 32 0 0 0 32-32v-448a32 32 0 0 0-32-32h-64v112a16 16 0 0 1-16 16h-128a16 16 0 0 1-16-16V0h-128v128a32 32 0 0 1-32 32h-64a32 32 0 0 1-32-32v-128H224a32 32 0 0 0-32 32V736a32 32 0 0 0 32 32h288a32 32 0 0 0 32-32v-224z m0-80v-32a16 16 0 0 1 16-16h32a16 16 0 0 1 16 16v32a16 16 0 0 1-16 16h-32a16 16 0 0 1-16-16z m0-160v-32a16 16 0 0 1 16-16h32a16 16 0 0 1 16 16v32a16 16 0 0 1-16 16h-32a16 16 0 0 1-16-16zM272 640a16 16 0 0 1 0-32h192a16 16 0 1 1 0 32h-192z m0-128a16 16 0 1 1 0-32h192a16 16 0 1 1 0 32h-192z m0-128a16 16 0 1 1 0-32h192a16 16 0 1 1 0 32h-192z m0-128a16 16 0 1 1 0-32h192a16 16 0 1 1 0 32h-192z m448 192a16 16 0 0 1-16-16v-32a16 16 0 0 1 16-16h32a16 16 0 0 1 16 16v32a16 16 0 0 1-16 16h-32z m0-160a16 16 0 0 1-16-16v-32a16 16 0 0 1 16-16h32a16 16 0 0 1 16 16v32a16 16 0 0 1-16 16h-32z"  horiz-adv-x="1024" />

    
    <glyph glyph-name="fenzu3" unicode="&#58912;" d="M360.544 384.672V46.4a52.8 52.8 0 0 0-105.6 0V384.736a382.688 382.688 0 0 0-47.2 10.112 80 80 0 0 0-58.4 77.024V512c0 1.312 0 2.624 0.096 3.936a32.448 32.448 0 0 0-0.096 2.464V736a32 32 0 0 0 32 32h6.4a32 32 0 0 0 32-32v-223.2a26.4 26.4 0 1 1 52.8 0V736a32 32 0 0 0 32 32h6.4a32 32 0 0 0 32-32v-223.2a26.4 26.4 0 1 1 52.8 0V736a32 32 0 0 0 32 32h6.4a32 32 0 0 0 32-32v-217.6c0-0.832-0.032-1.664-0.096-2.464l0.096-3.936v-40.192a80 80 0 0 0-58.4-77.024c-15.712-4.416-31.456-7.776-47.2-10.112z m451.2-27.04v-311.232a52.8 52.8 0 0 0-105.6 0v311.232c-61.536 28.992-105.6 107.2-105.6 199.168 0 116.64 70.912 211.2 158.4 211.2 87.456 0 158.4-94.56 158.4-211.2 0-91.968-44.096-170.176-105.6-199.168z"  horiz-adv-x="1056" />

    
    <glyph glyph-name="gouwu" unicode="&#58913;" d="M387.84 613.344a154.368 154.368 0 0 0 302.08 0h127.424a64 64 0 0 0 63.936-60.928l23.36-485.344A64 64 0 0 0 840.704 0H236.608a64 64 0 0 0-63.904 67.072l23.36 485.344a64 64 0 0 0 63.936 60.928h127.808z m39.68 0h222.72a115.776 115.776 0 0 1-222.72 0z m-99.392-360.704l-19.104-17.12c13.088-14.848 29.472-22.304 48.96-22.304 14.336 0.16 26.496 3.616 36.352 10.304 9.824 6.56 15.328 15.872 16.576 27.936 0.96 10.304-0.768 18.784-5.056 25.504-4.576 6.88-12.704 10.784-24.384 11.744l-18.56 1.536c-5.408 0.64-9.056 2.144-10.88 4.448a7.68 7.68 0 0 0-2.368 7.296 16.64 16.64 0 0 0 5.888 10.784c3.168 2.816 8.224 4.192 15.2 4.192 6.112 0 11.424-0.96 15.872-2.976 4.544-2.24 8.768-5.088 12.736-8.512l15.552 18.08a56.384 56.384 0 0 1-16.928 12.576 56 56 0 0 1-10.88 3.36 74.56 74.56 0 0 1-13.376 1.088c-11.616 0-21.664-3.2-30.176-9.6-8.768-6.4-14.272-15.968-16.416-28.736-1.504-10.624 0.32-18.88 5.568-24.8 5.12-6.08 12.48-9.6 22.016-10.56l20.16-1.92a17.12 17.12 0 0 0 9.984-2.976c2.336-1.76 3.264-4.864 2.784-9.344a15.104 15.104 0 0 0-7.68-11.744 32.448 32.448 0 0 0-17.12-4.16c-15.168 0-26.784 5.28-34.72 15.904z m116.64 136.672l-12.96-174.656h24l4.256 74.048c0.512 8.704 3.008 15.328 7.488 19.872a21.408 21.408 0 0 0 16.192 6.944c6.4 0 11.584-2.304 15.488-6.944 4.032-4.544 5.952-11.2 5.76-19.872l-1.824-74.048h24l0.64 82.656c-0.224 14.24-4.064 24.992-11.456 32.352-7.36 7.264-15.552 10.88-24.576 10.88-11.648 0-21.344-4.896-29.12-14.72h-0.448l3.648 63.488h-21.12z m106.976-112.352c0.128-13.12 1.216-23.072 3.328-29.952a46.208 46.208 0 0 1 23.936-28.384c5.92-3.424 13.44-5.248 22.56-5.408 9.44 0.16 16.96 1.984 22.592 5.408a23.648 23.648 0 0 1 7.36 5.12c2.048 1.792 3.808 3.584 5.184 5.44a39.04 39.04 0 0 1 8.672 17.824c1.344 6.88 1.504 16.864 0.48 29.952-1.024 13.12-2.688 23.168-5.024 30.176a44.768 44.768 0 0 1-10.656 17.376 45.44 45.44 0 0 1-12.992 11.136c-5.504 3.136-12.544 4.768-21.152 4.928-8.32-0.16-15.072-1.792-20.32-4.928a41.824 41.824 0 0 1-12.416-11.136 44.832 44.832 0 0 1-8.96-17.376c-1.824-7.04-2.72-17.088-2.56-30.176z m71.136-0.256c0.544-8.448 0.544-14.688 0.032-18.688a23.872 23.872 0 0 0-3.936-10.752 20.544 20.544 0 0 0-7.328-6.368 22.56 22.56 0 0 0-11.168-2.624 24.288 24.288 0 0 0-11.168 2.624 30.048 30.048 0 0 0-8.096 6.368 33.184 33.184 0 0 0-4.672 10.752 96.32 96.32 0 0 0-1.824 18.944 100.896 100.896 0 0 0 0.8 19.168 29.952 29.952 0 0 0 3.936 10.304 19.584 19.584 0 0 0 7.296 6.592 21.728 21.728 0 0 0 10.368 2.496c4.064 0 7.68-0.832 10.816-2.496 3.296-1.6 5.856-3.808 7.68-6.592 2.368-2.944 4.064-6.4 4.992-10.304 0.96-4.064 1.728-10.56 2.272-19.424z m41.152 62.304l16.64-174.656h24.832l-7.104 63.616c4.8-4.48 10.016-8 15.488-10.56 5.184-2.784 10.848-4.16 16.96-4.16a36.48 36.48 0 0 1 18.432 4.64c4.896 2.88 8.64 6.72 11.168 11.52a30.208 30.208 0 0 1 4.16 15.68c0.128 6.4-1.024 16.96-3.392 31.616-2.432 15.104-4.704 25.824-6.784 32.128-2.176 6.4-5.088 11.52-8.736 15.456a39.104 39.104 0 0 1-31.808 16.288 31.552 31.552 0 0 1-26.464-14.496l-1.44 12.928h-21.952z m56.384-100.736a21.888 21.888 0 0 0-12.992 3.584 23.712 23.712 0 0 0-8.128 9.12 52.896 52.896 0 0 0-4.224 12.576 135.392 135.392 0 0 0-3.04 27.2 47.488 47.488 0 0 0 1.312 12.192 17.28 17.28 0 0 0 5.696 9.12c2.656 2.304 6.464 3.456 11.456 3.456 5.28 0 9.6-0.96 12.928-2.976 3.36-2.176 5.952-5.12 7.776-8.864 1.952-3.616 3.52-7.744 4.736-12.48a490.016 490.016 0 0 0 4.064-28.256c0.16-4.544-0.256-8.704-1.216-12.48a15.52 15.52 0 0 0-5.632-8.832c-2.912-2.24-7.168-3.36-12.736-3.36z"  horiz-adv-x="1056" />

    
    <glyph glyph-name="jingdian" unicode="&#58914;" d="M522.56-23.424h-35.2c14.08 157.824 14.08 292.224-64 335.232-132.48 57.44-273.6 57.44-423.36 0 60.384 201.12 186.24 260.224 304.064 291.072-101.76 24.512-101.504 23.968-201.632 51.072 142.176 124.032 291.2 133.376 409.568 91.84 118.4 41.536 267.392 32.192 409.568-91.84-100.128-27.104-99.872-26.56-201.6-51.072 117.792-30.848 243.648-89.952 304.032-291.072-149.76 57.44-290.88 57.44-423.36 0 32-67.52 32-198.176 32-335.232h-110.08z"  horiz-adv-x="1024" />

    
    <glyph glyph-name="xingzhuang" unicode="&#58915;" d="M652.117333-53.973333l-498.176 2.645333 2.645334 850.602667 745.813333-2.645334v-597.930666c0-139.221333-112.725333-252.757333-250.282667-252.757334v0.085334z m29.312 614.997333c16.896 0 28.416 11.52 28.416 28.416s-11.52 28.416-28.416 28.416H298.154667c-16.938667 0-28.458667-11.52-28.458667-28.373333a26.965333 26.965333 0 0 1 28.416-28.458667h383.317333z m-12.8-204.373333v-0.085334a28.458667 28.458667 0 0 1 28.416 28.458667c0 16.896-11.52 28.458667-28.416 28.458667H303.274667c-16.938667 0-28.458667-11.562667-28.458667-28.458667a26.965333 26.965333 0 0 1 28.416-28.373333h365.397333z m-112.426666-178.858667a28.458667 28.458667 0 0 1 28.458666 28.330667c0 16.938667-11.562667 28.416-28.458666 28.416H303.274667c-16.938667 0-28.458667-11.477333-28.458667-28.373334a26.965333 26.965333 0 0 1 28.416-28.373333h252.970667z"  horiz-adv-x="1024" />

    
    <glyph glyph-name="hebingxingzhuang1" unicode="&#58916;" d="M978.901333 42.666667H42.666667v202.666666l12.117333 7.210667c29.098667 16.853333 106.752 69.973333 106.752 123.008-2.432 43.434667-58.24 79.616-104.32 101.333333L42.666667 484.138667V725.333333l31.530666-16.896c46.08-4.821333 548.181333-2.389333 880.469334 0h24.234666V496.213333l-12.117333-7.253333s-89.728-53.034667-89.728-118.186667c0-38.613333 29.098667-77.226667 92.16-113.365333l12.117333-7.253333V42.666667h-2.432zM401.066667 597.333333l81.578666-146.816h-55.210666v-25.941333h69.845333l0.426667-0.426667v-35.968h-70.272v-25.941333h70.272V298.666667h48.512v63.573333h70.698666v25.941333h-70.698666v35.968l0.426666 0.426667h70.272v25.941333h-55.637333L642.858667 597.333333h-55.210667l-65.706667-128.426666L456.277333 597.333333H401.066667z m440.618666-430.506666c13.994667 0 23.296 9.258667 23.296 23.253333 0 13.952-9.301333 23.253333-23.296 23.253333H236.586667c-13.952 0-23.253333-9.301333-23.253334-23.253333 0-13.994667 9.301333-23.296 23.253334-23.296h605.098666z"  horiz-adv-x="1024" />

    
    <glyph glyph-name="lujing" unicode="&#58917;" d="M687.829333 810.666667c-62.08 0-118.442667-23.253333-165.418666-67.84C475.178667 787.882667 419.754667 810.666667 357.034667 810.666667 207.189333 810.666667 85.333333 680.192 85.333333 519.808c0-93.952 41.898667-159.274667 72.618667-207.189333 71.893333-113.066667 220.714667-230.442667 303.061333-290.346667l3.84-2.773333a92.16 92.16 0 0 1 57.088-19.498667c19.754667 0 39.04 6.4 55.808 18.517333l1.066667 0.810667a291.413333 291.413333 0 0 0 3.968 2.901333c82.304 59.989333 231.168 177.493333 303.786667 290.602667 30.549333 47.701333 72.448 113.066667 72.448 206.933333C959.018667 680.234667 837.376 810.666667 687.786667 810.666667z"  horiz-adv-x="1024" />

    
    <glyph glyph-name="icon-test" unicode="&#58918;" d="M808.448 674.816h-96.597333a72.32 72.32 0 0 1-70.826667 71.168A72.362667 72.362667 0 0 1 569.173333 810.666667h-88.32c-37.290667 0-68.096-28.373333-71.893333-64.682667a72.32 72.32 0 0 1-70.826667-71.168H241.578667A70.826667 70.826667 0 0 1 170.666667 603.989333V28.16C170.666667-10.922667 202.410667-42.666667 241.493333-42.666667h566.954667a70.826667 70.826667 0 0 1 70.869333 70.826667V603.989333a70.826667 70.826667 0 0 1-70.826666 70.869334zM388.138667 624.853333V673.706667v1.066666a22.272 22.272 0 0 0 22.229333 21.205334h23.210667a25.002667 25.002667 0 0 1 25.002666 25.002666v17.408c0 12.245333 9.984 22.229333 22.229334 22.229334h88.32c12.288 0 22.272-9.984 22.272-22.229334v-17.408c0-13.824 11.178667-25.002667 25.002666-25.002666h23.210667a22.272 22.272 0 0 0 22.229333-22.272v-57.514667a22.272 22.272 0 0 0-22.186666-22.229333H410.325333a22.272 22.272 0 0 0-22.229333 22.229333v8.618667z m441.173333-596.650666a20.906667 20.906667 0 0 0-20.864-20.906667H241.536a20.906667 20.906667 0 0 0-20.906667 20.906667V603.946667c0 11.52 9.386667 20.906667 20.906667 20.906666h96.597333v-8.618666c0-39.808 32.426667-72.234667 72.234667-72.234667h229.248c39.850667 0 72.234667 32.426667 72.234667 72.234667v8.618666h96.597333c11.52 0 20.906667-9.386667 20.906667-20.906666v-575.744z m-491.52 310.314666h59.733333v-212.608h-59.733333v212.608z m145.877333 94.464h59.733334v-307.072h-59.733334v307.072z m145.877334-165.333333h59.733333v-141.738667h-59.733333v141.738667z"  horiz-adv-x="1024" />

    
    <glyph glyph-name="icon-test1" unicode="&#58919;" d="M170.666667 512v-213.333333H85.248V512h85.333333z m0 42.666667H85.248C61.824 554.666667 42.666667 535.466667 42.666667 512v-213.333333c0-23.466667 19.157333-42.666667 42.624-42.666667h85.333333c23.466667 0 42.666667 19.2 42.666667 42.666667V512a42.752 42.752 0 0 1-42.666667 42.666667zM938.666667 512v-213.333333h-85.333334V512h85.333334z m0 42.666667h-85.333334c-23.466667 0-42.666667-19.157333-42.666666-42.624v-213.290667c0-23.466667 19.2-42.666667 42.666666-42.666667h85.333334c23.466667 0 42.624 19.2 42.624 42.666667V511.957333C981.333333 535.466667 962.176 554.666667 938.709333 554.666667zM512 128c47.018667 0 85.333333-38.357333 85.333333-85.333333 0-47.061333-38.314667-85.376-85.333333-85.376-47.018667 0-85.333333 38.314667-85.333333 85.333333 0 47.018667 38.314667 85.333333 85.333333 85.333333z m0 42.666667a128 128 0 1 1 0-256 128 128 0 1 1 0 256z m-85.333333 384H341.333333v-85.333334h85.333334V554.666667z m256 0h-85.333334v-85.333334h85.333334V554.666667z m-23.722667-213.290667c-29.610667-50.773333-84.053333-85.333333-146.944-85.333333s-117.333333 34.56-146.944 85.333333H316.672a213.162667 213.162667 0 0 1 195.328-128 213.290667 213.290667 0 0 1 195.328 128h-48.384z m-508.586667 213.333333C203.264 703.488 345.173333 810.666667 512 810.666667c166.826667 0 308.736-107.093333 361.642667-256h45.44C864.725333 727.722667 703.018667 853.333333 512 853.333333S159.274667 727.765333 104.917333 554.666667h45.44z m705.109334-298.666666A385.536 385.536 0 0 0 640 65.109333v-45.482666A427.733333 427.733333 0 0 1 902.826667 256h-47.36z"  horiz-adv-x="1024" />

    
    <glyph glyph-name="icon-test2" unicode="&#58920;" d="M267.093333 298.666667h453.12c15.36 0 28.16 10.666667 28.16 21.333333 0 12.8-12.8 21.333333-28.16 21.333333H267.093333c-15.36 0-28.16-8.533333-28.16-21.333333 0-10.666667 12.8-21.333333 28.16-21.333333z m-2.56 128H725.333333c12.8 0 25.6 10.666667 25.6 21.333333s-12.8 21.333333-25.6 21.333333H264.533333c-12.8 0-25.6-10.666667-25.6-21.333333s12.8-21.333333 25.6-21.333333z m0 128H725.333333c12.8 0 25.6 10.666667 25.6 21.333333S738.133333 597.333333 725.333333 597.333333H264.533333c-12.8 0-25.6-10.666667-25.6-21.333333s12.8-21.333333 25.6-21.333333z m605.013334 170.666666v-650.666666a141.568 141.568 0 0 1-52.394667 10.666666c-39.296 0-73.386667-17.066667-91.733333-42.666666h-28.8c-18.346667 25.6-52.437333 42.666667-91.733334 42.666666-39.296 0-73.386667-17.066667-91.733333-42.666666h-28.8c-18.346667 25.6-52.394667 42.666667-91.733333 42.666666-39.253333 0-73.344-17.066667-91.690667-42.666666h-28.8c-18.346667 25.6-52.437333 42.666667-91.733333 42.666666-18.346667 0-36.693333-4.266667-52.394667-10.666666V725.333333h741.546667z m9.386666 42.666667h-768c-15.36 0-25.6-8.533333-25.6-21.333333v-725.333334c0-12.8 10.24-21.333333 25.6-21.333333h2.56c10.24 0 20.48 4.266667 25.6 12.8 7.68 17.066667 25.6 29.866667 48.64 29.866667 23.04 0 40.96-12.8 48.64-29.866667 2.56-8.533333 12.8-12.8 25.6-12.8h58.88c10.24 0 20.48 4.266667 25.6 12.8 7.68 17.066667 25.6 29.866667 48.64 29.866667 23.04 0 40.96-12.8 48.64-29.866667 2.56-8.533333 12.8-12.8 25.6-12.8h58.88c10.24 0 20.48 4.266667 25.6 12.8 7.68 17.066667 25.6 29.866667 48.64 29.866667 23.04 0 40.96-12.8 48.64-29.866667 2.56-8.533333 12.8-12.8 25.6-12.8h58.88c10.24 0 20.48 4.266667 25.6 12.8 7.68 17.066667 25.6 29.866667 48.64 29.866667 23.04 0 40.96-12.8 48.64-29.866667 2.56-8.533333 12.8-12.8 25.6-12.8h2.56c15.36 0 25.6 8.533333 25.6 21.333333v725.333334c-7.68 12.8-17.92 21.333333-33.28 21.333333z"  horiz-adv-x="1024" />

    
    <glyph glyph-name="icon-test3" unicode="&#58921;" d="M147.2 430.378667c-8.021333 9.045333-12.117333 21.632-9.856 38.186666l54.997333 254.122667c7.893333 24.832 19.285333 37.802667 47.573334 37.802667h548.010666c28.288 0 39.424-12.8 48.213334-39.68l0.128-0.597334 54.101333-251.562666c0.341333-22.357333-7.168-36.565333-19.925333-45.013334a53.888 53.888 0 0 0-28.8-8.533333v-358.613333c0-27.050667-22.144-49.066667-49.322667-49.066667H234.88a49.237333 49.237333 0 0 0-49.28 49.066667v357.418666a97.962667 97.962667 0 0 0-1.322667 1.109334c-15.872 0.469333-28.501333 5.546667-37.12 15.36z m85.930667-373.888a1.706667 1.706667 0 0 1 1.706666-1.706667H792.32a1.792 1.792 0 0 1 1.792 1.706667V391.253333a128.725333 128.725333 0 0 0-30.72-3.712 140.074667 140.074667 0 0 0-74.112 21.504 140.586667 140.586667 0 0 0-77.866667-23.594666c-34.133333 0-66.261333 9.728-88.874666 25.088-29.610667-16.341333-60.16-27.562667-86.357334-27.562667a175.658667 175.658667 0 0 0-90.026666 26.197333c-22.314667-14.336-53.333333-23.765333-79.488-23.765333a131.413333 131.413333 0 0 0-33.536 4.437333v-333.354666z m610.218666 406.954666l-52.096 241.92-1.194666 3.370667-0.64 1.749333-0.938667 2.56a27.306667 27.306667 0 0 1-0.597333 0H239.146667a50.858667 50.858667 0 0 1-0.554667-1.621333l-1.024-3.072-1.408-4.181333-51.626667-241.834667a28.245333 28.245333 0 0 1 4.778667 0.256l9.642667 1.664 5.845333-2.048 6.656-7.381333c10.794667-12.458667 32.682667-22.101333 55.210667-22.101334 22.314667 0 51.370667 11.392 61.952 22.784l12.8 13.738667h9.386666l12.757334-13.781333c11.136-12.074667 44.586667-25.173333 72.618666-25.173334 20.181333 0 53.034667 14.293333 75.818667 28.885334l12.288 7.936 8.192-1.066667 9.898667-10.709333c11.349333-12.288 39.68-22.613333 68.352-22.613334 16.725333 0.042667 32 4.437333 45.482666 11.776 8.106667 4.352 14.08 8.96 16.64 11.52l12.842667 12.586667 9.173333-0.213333 12.288-13.141334c10.368-11.178667 33.749333-20.48 56.277334-20.48 20.437333 0 39.68 7.765333 51.498666 20.48l6.656 7.168 5.973334 1.877334 8.448-1.792c4.010667-0.128 6.357333 0 7.338666 0.128-0.256 0.170667-0.085333 0.725333 0 0.853333z"  horiz-adv-x="1024" />

    
    <glyph glyph-name="icon-test4" unicode="&#58922;" d="M888.490667 732.544c38.186667 0 69.248-31.104 69.248-69.290667V106.666667c0-38.186667-31.061333-69.248-69.248-69.248H132.693333A69.333333 69.333333 0 0 0 63.445333 106.666667V663.253333c0 38.186667 31.061333 69.290667 69.290667 69.290667h755.754667z m26.581333-629.376V672.085333a13.653333 13.653333 0 0 1-13.696 13.568H119.850667a13.653333 13.653333 0 0 1-13.738667-13.568v-568.917333a13.653333 13.653333 0 0 1 13.738667-13.568h781.525333a13.653333 13.653333 0 0 1 13.696 13.568z m-355.84 185.941333a27.989333 27.989333 0 0 0 15.488-25.045333v-52.010667a27.989333 27.989333 0 0 0-27.989333-27.989333H203.008a27.989333 27.989333 0 0 0-28.032 27.989333v52.053334c0 10.752 6.186667 20.565333 15.914667 25.216l107.690666 51.626666-27.178666 38.186667a28.074667 28.074667 0 0 0-5.162667 16.213333V477.397333c0 60.842667 48.64 108.501333 110.677333 108.501334 62.122667 0 110.762667-47.658667 110.762667-108.501334v-81.962666c0-5.674667-1.706667-11.221333-4.949333-15.872l-26.666667-38.826667 103.168-51.584z m-40.533333-49.066666v6.741333l-116.48 58.197333a28.032 28.032 0 0 0-10.538667 40.96l39.978667 58.112V477.354667c0 29.44-24.021333 52.48-54.741334 52.48-30.677333 0-54.698667-23.04-54.698666-52.48v-73.045334l41.301333-58.026666a27.989333 27.989333 0 0 0-10.752-41.472l-121.770667-58.368v-6.4h287.744z m118.528 108.544a27.989333 27.989333 0 1 0 0 55.978666h113.792a27.989333 27.989333 0 1 0 0-55.978666h-113.792z m178.176 174.677333a27.989333 27.989333 0 1 0 0-56.021333h-178.176a27.989333 27.989333 0 1 0 0 56.021333h178.176z m0-245.632a27.989333 27.989333 0 1 0 0-55.978667h-178.176a27.989333 27.989333 0 1 0 0 55.978667h178.176z"  horiz-adv-x="1024" />

    
    <glyph glyph-name="x" unicode="&#58923;" d="M783.658667 655.488A381.653333 381.653333 0 0 1 512.128 768a381.568 381.568 0 0 1-271.616-112.512A381.568 381.568 0 0 1 128 383.872a382.72 382.72 0 0 1 62.122667-209.493333 26.709333 26.709333 0 1 1 44.714666 29.141333 329.728 329.728 0 0 0-53.461333 180.352A331.008 331.008 0 0 0 512 714.496c182.314667 0 330.581333-148.352 330.581333-330.624 0-182.229333-148.309333-330.581333-330.581333-330.581333a329.941333 329.941333 0 0 0-170.794667 47.488 26.752 26.752 0 0 1-27.733333-45.696A383.104 383.104 0 0 1 512-0.085333a381.525333 381.525333 0 0 1 271.530667 112.426666A381.866667 381.866667 0 0 1 896 384a381.354667 381.354667 0 0 1-112.341333 271.530667z m-286.336-8.704a33.792 33.792 0 0 1-33.792-33.834667v-243.285333c0-1.152 0.298667-2.304 0.426666-3.413333a33.408 33.408 0 0 1 33.792-29.738667l0.085334 0.768h191.872a33.834667 33.834667 0 1 1 0 67.626667h-158.549334V612.949333a33.834667 33.834667 0 0 1-33.834666 33.834667z"  horiz-adv-x="1024" />

    


  </font>
</defs>
</svg>
